<svg xmlns="http://www.w3.org/2000/svg" viewBox="0 0 238.95 67.78"><defs><style>.cls-1{fill:#6a6c6c;}.cls-2{fill:#bc1237;}.cls-3{fill:#fff;}</style></defs><title>ci</title><g id="Layer_2" data-name="Layer 2"><g id="Layer_1-2" data-name="Layer 1"><path class="cls-1" d="M68.87,61.15v1.77h-9V48.79h8.76V50.6H62.12v4.17h6.3v1.76h-6.3v4.62Z"/><path class="cls-1" d="M73.3,56c-1.54-.76-2.4-1.6-2.4-3.57,0-2.49,2.09-3.84,5.23-3.84a9,9,0,0,1,4.36,1l-.78,1.65a8.17,8.17,0,0,0-3.58-.85c-1.95,0-3,.74-3,1.91a2,2,0,0,0,1.37,1.85c1,.51,2.59,1,3.84,1.58a3.59,3.59,0,0,1,2.34,3.55c0,2.48-2.09,3.92-5.27,3.92a10.61,10.61,0,0,1-4.68-1.07l.82-1.7a8.36,8.36,0,0,0,3.8.93c2.17,0,3.11-.81,3.11-2a2,2,0,0,0-1.21-1.75C76.16,57,74.53,56.61,73.3,56Z"/><path class="cls-1" d="M84.8,56c-1.54-.76-2.39-1.6-2.39-3.57,0-2.49,2.08-3.84,5.22-3.84a9,9,0,0,1,4.37,1l-.78,1.65a8.21,8.21,0,0,0-3.59-.85c-1.95,0-3,.74-3,1.91A2,2,0,0,0,86,54.11c1,.51,2.6,1,3.84,1.58s2.35,1.46,2.35,3.55c0,2.48-2.09,3.92-5.27,3.92a10.58,10.58,0,0,1-4.68-1.07l.82-1.7a8.36,8.36,0,0,0,3.8.93c2.17,0,3.1-.81,3.1-2a2,2,0,0,0-1.21-1.75C87.67,57,86,56.61,84.8,56Z"/><path class="cls-1" d="M110.26,58.83c0,2.9-2.15,4.09-4.72,4.09H100V48.79h5.28c2.83,0,4.59,1,4.59,3.53a3.1,3.1,0,0,1-2.15,3.08A3.36,3.36,0,0,1,110.26,58.83Zm-5.13-8.23h-3v4.13h3c1.49,0,2.31-.76,2.31-2.1C107.51,51,106.43,50.6,105.13,50.6Zm.05,10.55c1.45,0,2.72-.45,2.72-2.32s-1.14-2.38-2.62-2.38h-3.12v4.7Z"/><path class="cls-1" d="M120.92,62.94a4.62,4.62,0,0,1-.81.06,2,2,0,0,1-2-1A5,5,0,0,1,115,63.16c-2.62,0-3.24-1.43-3.24-3.06,0-2.52,1.75-3.1,4.29-3.1.58,0,1.19,0,1.75.07v-.46c0-1.54-.48-2.13-2.14-2.13a6.67,6.67,0,0,0-3,.72l-.49-1.4a9.57,9.57,0,0,1,4.06-.94c2.86,0,3.8,1,3.8,4.1v3.29c0,.92.31,1.17.91,1.17ZM114,60c0,1,.39,1.56,1.52,1.56a3.73,3.73,0,0,0,2.22-.88V58.63a9.89,9.89,0,0,0-1.79-.11C114.51,58.52,114,59,114,60Z"/><path class="cls-1" d="M125.33,54.77V59.2c0,1.33.12,2.24,1.6,2.24A4.29,4.29,0,0,0,128.8,61l.39,1.5a7,7,0,0,1-3,.65c-2.54,0-3.08-1.39-3.08-3.39v-5h-1.68V53.31l1.66-.2v-2l2.2-.39V53.1h3.53v1.67Z"/><path class="cls-1" d="M133.6,54.77V59.2c0,1.33.12,2.24,1.6,2.24a4.33,4.33,0,0,0,1.87-.43l.39,1.5a7,7,0,0,1-3,.65c-2.54,0-3.08-1.39-3.08-3.39v-5h-1.68V53.31l1.66-.2v-2l2.2-.39V53.1h3.53v1.67Z"/><path class="cls-1" d="M138.54,58q0-5.09,4.67-5.09c3.4,0,4.16,2,4.16,4.82v.88H140.8a3.69,3.69,0,0,0,.54,2.14,2.71,2.71,0,0,0,2.27.84,7,7,0,0,0,3.14-.8l.46,1.4a8.36,8.36,0,0,1-3.94,1C139.71,63.16,138.54,61.44,138.54,58Zm6.55-.92c0-1.87-.63-2.67-1.91-2.67a2,2,0,0,0-2.29,2l-.07.64Z"/><path class="cls-1" d="M151.19,53.1l.14,1.19a2.93,2.93,0,0,1,1.07-.88,4,4,0,0,1,2-.55,4.28,4.28,0,0,1,1.5.27l-.54,1.8a2.46,2.46,0,0,0-1.21-.27,2.72,2.72,0,0,0-1.58.48,4.68,4.68,0,0,0-.94.76v7h-2.18V55.85l-.28-2.75Z"/><path class="cls-1" d="M155.91,53.1h2.44l2.44,7.25H161l2.32-7.25h2.23l-3.82,10.51c-.9,2.49-1.74,4.17-4.53,4.17a3.15,3.15,0,0,1-1.23-.14l.29-1.54a3.11,3.11,0,0,0,.76.08,2.08,2.08,0,0,0,1.84-.82,17.17,17.17,0,0,0,1-2.38Z"/><path class="cls-1" d="M176.86,48.79c4.52,0,7.1,2,7.1,7.11,0,5.35-3.26,7-7.67,7h-3.72V48.79Zm-.63,12.36c3.38,0,5.39-1.21,5.39-5.48,0-3.51-1.7-5.07-4.78-5.07h-2V61.15Z"/><path class="cls-1" d="M186.16,48.94h2.22v2h-2.22Zm0,4.16h2.19v9.82h-2.19Z"/><path class="cls-1" d="M194.64,61.36l2.52-8.26h2.26L196,62.92H193l-3.38-9.82H192l2.44,8.26Z"/><path class="cls-1" d="M200.67,48.94h2.22v2h-2.22Zm0,4.16h2.18v9.82h-2.18Z"/><path class="cls-1" d="M209.35,57.13l1.23.41a2.59,2.59,0,0,1,2.18,2.61c0,2.07-1.54,3-4.21,3a9.35,9.35,0,0,1-3.74-.7l.68-1.6a6.39,6.39,0,0,0,3.06.68c1.17,0,2.07-.25,2.07-1.17,0-.51-.41-.92-1.25-1.25s-1.64-.51-2.34-.76A2.59,2.59,0,0,1,205,55.79c0-2,1.83-2.93,4.12-2.93a9.08,9.08,0,0,1,3.6.65L212,55.08a6.67,6.67,0,0,0-2.92-.6c-1.39,0-2.05.43-2.05,1.09,0,.51.37.82,1.25,1.15C208.51,56.84,208.94,57,209.35,57.13Z"/><path class="cls-1" d="M214.65,48.94h2.23v2h-2.23Zm0,4.16h2.19v9.82h-2.19Z"/><path class="cls-1" d="M218.91,58c0-3.45,1.5-5.11,5-5.11s4.54,2,4.54,5.21c0,3.47-1.56,5.09-5,5.09S218.91,61.21,218.91,58Zm7.29-.08c0-1.89-.45-3.51-2.3-3.51-2.13,0-2.75,1.33-2.75,3.77,0,1.91.39,3.45,2.28,3.45C225.58,61.6,226.2,60.35,226.2,57.89Z"/><path class="cls-1" d="M232.32,53.1l.08.78a4.75,4.75,0,0,1,1.23-.63,6.62,6.62,0,0,1,2.11-.39c2.61,0,3.21,1.33,3.21,3.61v6.45h-2.18v-6c0-1.35-.22-2.34-1.68-2.34a3.66,3.66,0,0,0-2.05.6l-.38.26v7.46h-2.19V55.71l-.18-2.61Z"/><path class="cls-2" d="M24.41,48.82A24.41,24.41,0,1,0,0,24.41,24.41,24.41,0,0,0,24.41,48.82"/><polygon class="cls-3" points="23.44 13.7 23.44 35.1 30.25 35.1 30.25 33.19 25.39 33.19 25.39 13.7 23.44 13.7"/><path class="cls-3" d="M16.62,19.54a2.93,2.93,0,1,0-2.93-2.93,2.93,2.93,0,0,0,2.93,2.93"/><path class="cls-3" d="M25.39,4l-1,0A20.44,20.44,0,1,0,44.85,24.4v-.93H30.25v1.9H42.9v.28A18.52,18.52,0,0,1,11.32,37.5,18.52,18.52,0,0,1,24.41,5.88h1Z"/><path class="cls-1" d="M67.18,8.15H59.81V40H82.44v-6.2H67.18ZM98.64,27.89h6v5.58a17.13,17.13,0,0,1-5.32.84c-6.63,0-8.84-3.37-8.84-10.21,0-6.52,2.1-10.37,8.73-10.37,3.69,0,5.79,1.16,7.53,3.37l4.58-4.21c-2.79-4-7.69-5.2-12.26-5.2-10.32,0-15.74,5.62-15.74,16.36S88.22,40.52,99,40.52c4.95,0,9.79-1.26,12.42-3.1V22H98.64Z"/><path class="cls-1" d="M148.52,12c-2.76-3.06-7.23-4.21-11.3-4.21-10,0-15.43,5.61-15.43,16.39,0,10.29,4.15,16.38,15.34,16.38A22.61,22.61,0,0,0,148,38l-1.58-5.3a21,21,0,0,1-8.84,1.88c-7.05,0-8.78-4.25-8.78-10.47,0-7.23,3.08-10.69,8.64-10.69a10,10,0,0,1,7.19,3.07ZM151,8.17V40.06h6.35V23.72a7.21,7.21,0,0,1,3.37-1.14c2.94,0,4,.87,4,3.63V40.06h6.35V24.81c0-4.38-1.7-7.4-7.05-7.4a16,16,0,0,0-6.7,1.58V8.17Zm43.36,20.28c0-6.31-2.85-11-9.9-11s-10.73,4.2-10.73,11.48c0,7.71,2.81,11.69,11,11.69a18.22,18.22,0,0,0,9.2-2.32l-1.19-4.16a16.59,16.59,0,0,1-6.87,1.66,6.59,6.59,0,0,1-4.6-1.4,5.94,5.94,0,0,1-1.23-3.94h14.28Zm-6.26-2.1h-8c.09-3.07,1.58-4.56,4.2-4.56s3.82,1.88,3.82,4.56M197,18V40.06h6.31V23.81a4.82,4.82,0,0,1,2.89-1.06c2.72,0,3.42.83,3.42,3.64V40.06h6.26V26.48a12.33,12.33,0,0,0-.3-2.76,4.27,4.27,0,0,1,2.85-1c2.84,0,3.76,1.32,3.76,4V40.06h6.27V25.16c0-4.55-1.93-7.71-7.32-7.71a12.9,12.9,0,0,0-6.74,1.93,5.38,5.38,0,0,0-4.6-2,11,11,0,0,0-6.67,2.15V18Z"/></g></g></svg>